<svg xmlns="http://www.w3.org/2000/svg" width="1600" height="900" viewBox="0 0 1600 900">
<defs>
<linearGradient id="sky" x1="0" y1="0" x2="0" y2="1">
<stop offset="0" stop-color="#141a2e"/><stop offset=".55" stop-color="#1d2440"/><stop offset="1" stop-color="#252c4a"/>
</linearGradient>
<radialGradient id="glow" cx=".5" cy=".5" r=".5">
<stop offset="0" stop-color="#f4bb73" stop-opacity=".55"/><stop offset="1" stop-color="#f4bb73" stop-opacity="0"/>
</radialGradient>
</defs>
<rect width="1600" height="900" fill="url(#sky)"/>
<circle cx="1290" cy="150" r="58" fill="#e8eef2" opacity=".85"/>
<g fill="#0e1322">
<rect x="60" y="380" width="120" height="330"/><rect x="210" y="300" width="90" height="410"/>
<rect x="330" y="430" width="140" height="280"/><rect x="500" y="260" width="100" height="450"/>
<rect x="630" y="360" width="130" height="350"/><rect x="790" y="310" width="110" height="400"/>
<rect x="930" y="420" width="150" height="290"/><rect x="1110" y="280" width="95" height="430"/>
<rect x="1230" y="390" width="140" height="320"/><rect x="1400" y="340" width="130" height="370"/>
</g>
<g fill="#f2c38c" opacity=".8">
<rect x="80" y="410" width="10" height="14"/><rect x="110" y="450" width="10" height="14"/><rect x="140" y="520" width="10" height="14"/>
<rect x="230" y="340" width="10" height="14"/><rect x="260" y="400" width="10" height="14"/>
<rect x="350" y="470" width="10" height="14"/><rect x="410" y="510" width="10" height="14"/><rect x="440" y="600" width="10" height="14"/>
<rect x="520" y="300" width="10" height="14"/><rect x="555" y="360" width="10" height="14"/><rect x="520" y="480" width="10" height="14"/>
<rect x="650" y="400" width="10" height="14"/><rect x="700" y="460" width="10" height="14"/><rect x="720" y="560" width="10" height="14"/>
<rect x="810" y="350" width="10" height="14"/><rect x="850" y="430" width="10" height="14"/>
<rect x="950" y="460" width="10" height="14"/><rect x="1010" y="520" width="10" height="14"/><rect x="1040" y="620" width="10" height="14"/>
<rect x="1130" y="320" width="10" height="14"/><rect x="1165" y="390" width="10" height="14"/>
<rect x="1250" y="430" width="10" height="14"/><rect x="1310" y="500" width="10" height="14"/>
<rect x="1420" y="380" width="10" height="14"/><rect x="1470" y="450" width="10" height="14"/><rect x="1490" y="540" width="10" height="14"/>
</g>
<g fill="#8ea6c8" opacity=".35"><rect x="95" y="700" width="1410" height="3"/></g>
<ellipse cx="240" cy="760" rx="420" ry="230" fill="url(#glow)"/>
<g fill="#171223">
<rect x="0" y="700" width="1600" height="200"/>
<rect x="180" y="640" width="26" height="62"/><rect x="150" y="676" width="84" height="26"/>
</g>
<path d="M186 640 l-36 36 M186 640 l36 36 M186 640 v52 M168 658 h36" stroke="#2b2137" stroke-width="7"/>
<rect x="470" y="662" width="64" height="44" rx="6" fill="#232b3e"/>
<rect x="482" y="674" width="18" height="12" fill="#3d4a68"/><rect x="506" y="674" width="18" height="12" fill="#3d4a68"/>
<rect x="482" y="692" width="18" height="8" fill="#3d4a68"/><rect x="506" y="692" width="18" height="8" fill="#3d4a68"/>
<g fill="#1d2a33"><rect x="1150" y="672" width="150" height="16"/><rect x="1160" y="654" width="130" height="16"/><rect x="1172" y="636" width="106" height="16"/></g>
</svg>
